ffmpeg version 2.8.11-0ubuntu0.16.04.1 Copyright (c) 2000-2017 the FFmpeg developers
  built with gcc 5.4.0 (Ubuntu 5.4.0-6ubuntu1~16.04.4) 20160609
  configuration: --prefix=/usr --extra-version=0ubuntu0.16.04.1 --build-suffix=-ffmpeg --toolchain=hardened --libdir=/usr/lib/x86_64-linux-gnu --incdir=/usr/include/x86_64-linux-gnu --cc=cc --cxx=g++ --enable-gpl --enable-shared --disable-stripping --disable-decoder=libopenjpeg --disable-decoder=libschroedinger --enable-avresample --enable-avisynth --enable-gnutls --enable-ladspa --enable-libass --enable-libbluray --enable-libbs2b --enable-libcaca --enable-libcdio --enable-libflite --enable-libfontconfig --enable-libfreetype --enable-libfribidi --enable-libgme --enable-libgsm --enable-libmodplug --enable-libmp3lame --enable-libopenjpeg --enable-libopus --enable-libpulse --enable-librtmp --enable-libschroedinger --enable-libshine --enable-libsnappy --enable-libsoxr --enable-libspeex --enable-libssh --enable-libtheora --enable-libtwolame --enable-libvorbis --enable-libvpx --enable-libwavpack --enable-libwebp --enable-libx265 --enable-libxvid --enable-libzvbi --enable-openal --enable-opengl --enable-x11grab --enable-libdc1394 --enable-libiec61883 --enable-libzmq --enable-frei0r --enable-libx264 --enable-libopencv
  libavutil      54. 31.100 / 54. 31.100
  libavcodec     56. 60.100 / 56. 60.100
  libavformat    56. 40.101 / 56. 40.101
  libavdevice    56.  4.100 / 56.  4.100
  libavfilter     5. 40.101 /  5. 40.101
  libavresample   2.  1.  0 /  2.  1.  0
  libswscale      3.  1.101 /  3.  1.101
  libswresample   1.  2.101 /  1.  2.101
  libpostproc    53.  3.100 / 53.  3.100
[mp3 @ 0x173d8c0] Unknown attached picture mimetype: ('image/png', None), skipping.
[mp3 @ 0x173d8c0] Skipping 0 bytes of junk at 17522.
Input #0, mp3, from '094-miguel-de-cervantes-saavedra-don-kichot-z-la-manchy-ksiega-07-rozdzial-11.mp3':
  Metadata:
    title           : Miguel De Cervantes Saavedra, "Don Kichot z La Manchy", księga 07, rozdział 11 (tłum. Walenty Zakrzewski)
    artist          : Wiktor Korzeniewski
    album           : Wolne Lektury
    genre           : 0
    URL             : http://wolnelektury.pl/katalog/lektura/don-kichot-z-la-manchy.
    encoder         : Lavf53.21.0
    date            : 2012
    CONDUCTOR       : Adam Bień
    performer       : Adam Bień
    album_artist    : Fundacja Nowoczesna Polska
    copyright       : 2012 Fundacja Nowoczesna Polska. Licensed to the public under http://creativecommons.org/licenses/by-sa/3.0/deed.pl verify at http://wolnelektury.pl/katalog/lektura/don-kichot-z-la-manchy
    TRANSLATOR      : Walenty Zakrzewski
    encoded_by      : Adam Bień
    publisher       : Fundacja Nowoczesna Polska
  Duration: 00:03:43.01, start: 0.000000, bitrate: 64 kb/s
    Stream #0:0: Audio: mp3, 44100 Hz, mono, s16p, 64 kb/s
Output #0, null, to 'pipe:':
  Metadata:
    title           : Miguel De Cervantes Saavedra, "Don Kichot z La Manchy", księga 07, rozdział 11 (tłum. Walenty Zakrzewski)
    artist          : Wiktor Korzeniewski
    album           : Wolne Lektury
    genre           : 0
    URL             : http://wolnelektury.pl/katalog/lektura/don-kichot-z-la-manchy.
    date            : 2012
    CONDUCTOR       : Adam Bień
    performer       : Adam Bień
    album_artist    : Fundacja Nowoczesna Polska
    copyright       : 2012 Fundacja Nowoczesna Polska. Licensed to the public under http://creativecommons.org/licenses/by-sa/3.0/deed.pl verify at http://wolnelektury.pl/katalog/lektura/don-kichot-z-la-manchy
    TRANSLATOR      : Walenty Zakrzewski
    encoded_by      : Adam Bień
    publisher       : Fundacja Nowoczesna Polska
    encoder         : Lavf56.40.101
    Stream #0:0: Audio: pcm_s16le, 44100 Hz, mono, s16, 705 kb/s
    Metadata:
      encoder         : Lavc56.60.100 pcm_s16le
Stream mapping:
  Stream #0:0 -> #0:0 (mp3 (native) -> pcm_s16le (native))
Press [q] to stop, [?] for help
[silencedetect @ 0x1750b80] silence_start: -0.00367347
[silencedetect @ 0x1750b80] silence_end: 0.653061 | silence_duration: 0.656735
[silencedetect @ 0x1750b80] silence_start: 1.98163
[silencedetect @ 0x1750b80] silence_end: 2.50776 | silence_duration: 0.526122
[silencedetect @ 0x1750b80] silence_start: 7.80694
[silencedetect @ 0x1750b80] silence_end: 8.46367 | silence_duration: 0.656735
[silencedetect @ 0x1750b80] silence_start: 16.9498
[silencedetect @ 0x1750b80] silence_end: 17.4498 | silence_duration: 0.5
[silencedetect @ 0x1750b80] silence_start: 22.0437
[silencedetect @ 0x1750b80] silence_end: 22.7788 | silence_duration: 0.735102
[silencedetect @ 0x1750b80] silence_start: 43.438
[silencedetect @ 0x1750b80] silence_end: 44.1731 | silence_duration: 0.735102
[silencedetect @ 0x1750b80] silence_start: 46.2069
[silencedetect @ 0x1750b80] silence_end: 46.9682 | silence_duration: 0.761224
[silencedetect @ 0x1750b80] silence_start: 49.838
[silencedetect @ 0x1750b80] silence_end: 50.4686 | silence_duration: 0.630612
[silencedetect @ 0x1750b80] silence_start: 55.6371
[silencedetect @ 0x1750b80] silence_end: 56.1894 | silence_duration: 0.552245
[silencedetect @ 0x1750b80] silence_start: 62.8469
[silencedetect @ 0x1750b80] silence_end: 63.3992 | silence_duration: 0.552245
[silencedetect @ 0x1750b80] silence_start: 67.3139
[silencedetect @ 0x1750b80] silence_end: 68.1012 | silence_duration: 0.787347
[silencedetect @ 0x1750b80] silence_start: 77.5539
[silencedetect @ 0x1750b80] silence_end: 78.0539 | silence_duration: 0.5
[silencedetect @ 0x1750b80] silence_start: 83.2224
[silencedetect @ 0x1750b80] silence_end: 83.8792 | silence_duration: 0.656735
[silencedetect @ 0x1750b80] silence_start: 96.1269
[silencedetect @ 0x1750b80] silence_end: 96.6531 | silence_duration: 0.526122
[silencedetect @ 0x1750b80] silence_start: 106.106
[silencedetect @ 0x1750b80] silence_end: 106.632 | silence_duration: 0.526122
[silencedetect @ 0x1750b80] silence_start: 108.352
[silencedetect @ 0x1750b80] silence_end: 109.009 | silence_duration: 0.656735
[silencedetect @ 0x1750b80] silence_start: 124.182
[silencedetect @ 0x1750b80] silence_end: 124.761 | silence_duration: 0.578367
[silencedetect @ 0x1750b80] silence_start: 130.138
[silencedetect @ 0x1750b80] silence_end: 130.769 | silence_duration: 0.630612
[silencedetect @ 0x1750b80] silence_start: 142.338
[silencedetect @ 0x1750b80] silence_end: 143.02 | silence_duration: 0.682857
[silencedetect @ 0x1750b80] silence_start: 145.942
[silencedetect @ 0x1750b80] silence_end: 146.469 | silence_duration: 0.526122
[silencedetect @ 0x1750b80] silence_start: 149.809
[silencedetect @ 0x1750b80] silence_end: 150.413 | silence_duration: 0.60449
[silencedetect @ 0x1750b80] silence_start: 155.895
[silencedetect @ 0x1750b80] silence_end: 156.578 | silence_duration: 0.682857
[silencedetect @ 0x1750b80] silence_start: 157.933
[silencedetect @ 0x1750b80] silence_end: 158.563 | silence_duration: 0.630612
[silencedetect @ 0x1750b80] silence_start: 161.799
[silencedetect @ 0x1750b80] silence_end: 162.403 | silence_duration: 0.60449
[silencedetect @ 0x1750b80] silence_start: 166.24
[silencedetect @ 0x1750b80] silence_end: 166.949 | silence_duration: 0.70898
[silencedetect @ 0x1750b80] silence_start: 185.152
[silencedetect @ 0x1750b80] silence_end: 185.731 | silence_duration: 0.578367
[silencedetect @ 0x1750b80] silence_start: 195.027
[silencedetect @ 0x1750b80] silence_end: 195.631 | silence_duration: 0.60449
[silencedetect @ 0x1750b80] silence_start: 203.647
[silencedetect @ 0x1750b80] silence_end: 204.225 | silence_duration: 0.578367
[silencedetect @ 0x1750b80] silence_start: 206.05
[silencedetect @ 0x1750b80] silence_end: 206.576 | silence_duration: 0.526122
[silencedetect @ 0x1750b80] silence_start: 209.185
[silencedetect @ 0x1750b80] silence_end: 209.946 | silence_duration: 0.761224
[silencedetect @ 0x1750b80] silence_start: 216.003
[silencedetect @ 0x1750b80] silence_end: 216.633 | silence_duration: 0.630612
[silencedetect @ 0x1750b80] silence_start: 220.94
size=N/A time=00:03:43.00 bitrate=N/A    
video:0kB audio:19208kB subtitle:0kB other streams:0kB global headers:0kB muxing overhead: unknown
